<?xml version="1.0" encoding="iso-8859-1"?>
<!-- Generator: Adobe Illustrator 19.0.0, SVG Export Plug-In . SVG Version: 6.00 Build 0)  -->
<svg version="1.1" id="Capa_1" xmlns="http://www.w3.org/2000/svg" xmlns:xlink="http://www.w3.org/1999/xlink" x="0px" y="0px"
	 viewBox="0 0 409.6 409.6" style="enable-background:new 0 0 409.6 409.6;" xml:space="preserve">
<circle style="fill:#E05B49;" cx="204.8" cy="204.8" r="204.8"/>
<path style="opacity:0.1;enable-background:new    ;" d="M406.42,240.586L289.413,123.58c-1.112-1.158-2.246-2.293-3.404-3.404
	l-0.003-0.003c-21.082-20.239-49.688-32.699-81.226-32.699c-64.768,0-117.333,52.522-117.333,117.333
	c0,34.594,14.984,65.68,38.798,87.154l-0.003,0.003l114.439,114.439C325.045,391.485,391.541,324.963,406.42,240.586z"/>
<circle style="fill:#44C4A1;" cx="204.8" cy="204.8" r="117.33"/>
<circle style="fill:#EBF0F3;" cx="204.8" cy="204.8" r="91.99"/>
<g>
	<path style="fill:#3A556A;" d="M193.889,157.952c-3.533-3.533-5.3-7.864-5.3-12.991c0-5.125,1.767-9.458,5.3-12.991
		c3.536-3.533,7.864-5.3,12.991-5.3c5.125,0,9.458,1.767,12.991,5.3c3.536,3.533,5.302,7.866,5.302,12.991
		c0,5.128-1.767,9.458-5.302,12.991c-3.533,3.533-7.866,5.3-12.991,5.3C201.753,163.251,197.425,161.485,193.889,157.952z"/>
	<polygon style="fill:#3A556A;" points="169.007,169.117 225.175,169.117 225.175,270.462 244.263,270.462 244.263,282.931 
		188.59,282.931 188.59,185.172 169.007,185.172 	"/>
	<rect x="167.42" y="270.38" style="fill:#3A556A;" width="51.844" height="12.553"/>
</g>
<g>
</g>
<g>
</g>
<g>
</g>
<g>
</g>
<g>
</g>
<g>
</g>
<g>
</g>
<g>
</g>
<g>
</g>
<g>
</g>
<g>
</g>
<g>
</g>
<g>
</g>
<g>
</g>
<g>
</g>
</svg>
